<svg xmlns="http://www.w3.org/2000/svg" viewBox="0 0 192 192" width="192" height="192">
  <defs>
    <linearGradient id="bg" x1="0%" y1="0%" x2="100%" y2="100%">
      <stop offset="0%" style="stop-color:#D4A853"/>
      <stop offset="100%" style="stop-color:#8B7035"/>
    </linearGradient>
  </defs>
  <rect width="192" height="192" rx="40" fill="#0A0A0F"/>
  <rect x="4" y="4" width="184" height="184" rx="38" fill="none" stroke="url(#bg)" stroke-width="3" opacity="0.6"/>
  <!-- Stylized canine face -->
  <g transform="translate(96,88)" fill="none" stroke="#D4A853" stroke-width="3" stroke-linecap="round" stroke-linejoin="round">
    <!-- Ears -->
    <path d="M-30,-30 L-38,-52 L-18,-36" fill="#D4A853" opacity="0.3"/>
    <path d="M30,-30 L38,-52 L18,-36" fill="#D4A853" opacity="0.3"/>
    <!-- Head outline -->
    <ellipse cx="0" cy="-10" rx="32" ry="28"/>
    <!-- Eyes -->
    <circle cx="-12" cy="-14" r="4" fill="#D4A853"/>
    <circle cx="12" cy="-14" r="4" fill="#D4A853"/>
    <!-- Nose -->
    <ellipse cx="0" cy="2" rx="6" ry="4" fill="#D4A853"/>
    <!-- Mouth -->
    <path d="M-8,8 Q0,14 8,8"/>
    <!-- Wings (left) -->
    <path d="M-34,-8 Q-56,-20 -52,-42 Q-48,-28 -38,-18" stroke-width="2.5" opacity="0.7"/>
    <path d="M-36,-4 Q-60,-10 -58,-34 Q-52,-22 -40,-14" stroke-width="2" opacity="0.5"/>
    <!-- Wings (right) -->
    <path d="M34,-8 Q56,-20 52,-42 Q48,-28 38,-18" stroke-width="2.5" opacity="0.7"/>
    <path d="M36,-4 Q60,-10 58,-34 Q52,-22 40,-14" stroke-width="2" opacity="0.5"/>
  </g>
  <!-- Text -->
  <text x="96" y="160" text-anchor="middle" font-size="22" font-weight="bold" fill="#D4A853" font-family="Georgia,serif" letter-spacing="3">PAZUZU</text>
</svg>
